<svg width="120" height="28" viewBox="0 0 120 28" fill="none" xmlns="http://www.w3.org/2000/svg">
<path d="M32.7576 2.00672e-06L41.8517 12.8211L50.8078 1.4047e-05L71.1978 1.00336e-05V27.486H63.844V6.03353L53.947 6.03353L45.5567 18.0445L45.5567 27.43H38.203V18.0446L29.6835 6.03353L11.3595 6.03354C9.14671 6.03645 7.35376 7.83619 7.35376 10.0559V17.4302C7.35377 19.6484 9.14435 21.4472 11.3552 21.4525L32.0891 21.4525L28.7465 27.486L10.0279 27.486C4.48962 27.486 0 22.9839 0 17.4302V10.0559C0 4.72744 4.13279 0.366974 9.35933 0.0220016V2.20739e-05L10.0279 1.00336e-05L32.7576 2.00672e-06Z" fill="#F5F5F5"/>
<path d="M83.8997 0V6.03352H76.546V0H83.8997Z" fill="#F5F5F5"/>
<path d="M120 3.6663V2.00672e-06L89.2479 0V6.03352L117.639 6.03352C118.943 6.03352 120 4.97368 120 3.6663Z" fill="#F5F5F5"/>
<path d="M89.2479 10.7263V27.486L116.657 27.486L120 21.4525H96.6017V16.7598L114.297 16.7598C115.6 16.7598 116.657 15.6999 116.657 14.3926V10.7263H89.2479Z" fill="#F5F5F5"/>
</svg>
