<svg width="834" height="200" viewBox="0 0 834 200" fill="none" xmlns="http://www.w3.org/2000/svg">
<path d="M107.1 154.6L88.56 151.72C87.84 167.02 86.22 172.06 72.54 172.06H63.54C49.32 172.06 47.52 170.08 47.52 163.06V107.62H74.16C73.08 122.2 71.82 130.48 71.1 132.28C69.12 133.72 68.94 134.08 66.78 134.08C64.26 134.08 58.5 134.08 55.8 133.72L56.16 151C65.52 151.36 72 151.18 75.6 150.64C80.28 149.92 84.24 148.3 87.3 144.52C91.26 140.02 93.06 124.72 94.5 96.64V95.92L108 83.14C100.62 71.8 84.6 52.18 71.1 38.5C72 36.16 73.98 33.28 75.06 30.94L55.8 24.82C46.98 46.42 26.28 71.8 7.2 84.94L20.7 102.04C23.04 100.06 25.2 98.44 27 97.18V163.24C27 182.68 34.56 189.88 62.46 189.88H73.08C98.46 189.88 104.76 180.7 107.1 154.6ZM154.08 188.62C161.1 185.56 163.98 179.08 163.98 167.56V28.6H143.1V167.56C143.1 170.8 141.3 172.6 138.06 172.78H137.16C132.84 172.78 121.5 172.6 114.48 172.24L115.92 192.58C134.46 192.58 147.06 191.68 154.08 188.62ZM129.06 45.34H109.08V146.32H129.06V45.34ZM35.28 89.44C44.82 80.26 55.08 67.66 62.1 55.96C71.1 66.22 80.28 79.9 87.3 89.44H35.28ZM236.16 186.64C241.2 183.76 242.82 178.54 242.82 170.44V131.2H270.54V113.56H242.82V99.34H273.42V82.06H255.06C257.58 76.84 260.28 69.1 262.98 62.8L248.4 59.92H270.72V42.64H244.26C242.46 37.06 239.22 29.68 236.7 24.28L217.98 28.78C219.6 32.74 221.76 38.14 223.2 42.64H192.42V59.92H216.72L201.96 63.52C204.48 68.74 206.64 76.84 207.54 82.06H189.72V99.34H223.92V113.56H190.8V131.2H223.92V169.9C223.92 171.7 223.2 172.6 221.4 172.6C219.42 172.6 213.66 172.6 210.78 172.42L212.04 189.52C223.2 189.52 231.12 189.34 236.16 186.64ZM334.62 103.12H351.36V83.68H297.36V55.6C313.56 52.54 333 47.68 347.22 42.28L330.66 26.98C318.42 32.74 296.82 38.68 278.28 41.92V105.28C278.28 121.48 277.38 143.26 272.34 160.18C269.46 153.88 263.34 142.54 258.12 134.8L244.44 143.08C249.12 150.28 255.42 162.52 258.12 169.36L272.16 160.54C270.36 166.48 267.66 173.32 264.42 178C268.56 180.16 277.2 187.18 280.44 190.78C295.02 169.72 297.36 129.4 297.36 104.56V103.12H313.56V192.04H334.62V103.12ZM216.72 82.06L225.18 79.72C224.46 74.5 221.94 65.68 219.06 59.92H245.34C243.54 66.04 240.3 75.94 237.78 82.06H216.72ZM219.6 140.56L203.04 136.6C199.98 145.6 193.86 156.76 188.28 162.52L200.7 173.68C208.26 165.58 215.46 151.72 219.6 140.56Z" fill="url(#paint0_linear_620_921)"/>
<g clip-path="url(#clip0_620_921)">
<path fill-rule="evenodd" clip-rule="evenodd" d="M433.912 82.9706C432.35 81.4085 429.817 81.4085 428.255 82.9706L416.941 94.2843L405.627 82.9706C404.065 81.4085 401.533 81.4085 399.971 82.9706C398.409 84.5327 398.409 87.0653 399.971 88.6274L411.284 99.9411L399.971 111.255C398.409 112.817 398.409 115.35 399.971 116.912C401.533 118.474 404.065 118.474 405.627 116.912L416.941 105.598L428.255 116.912C429.817 118.474 432.35 118.474 433.912 116.912C435.474 115.35 435.474 112.817 433.912 111.255L422.598 99.9411L433.912 88.6274C435.474 87.0653 435.474 84.5327 433.912 82.9706Z" fill="url(#paint1_linear_620_921)"/>
</g>
<path d="M580.2 104.56V27.16H560.94V69.1C557.52 62.26 552.84 53.62 548.88 47.5L534.66 55.96L536.28 58.66H521.88V25.36H502.62V58.66H483V78.1H502.62V108.16C501.18 108.7 499.56 109.06 498.12 109.6L496.14 110.32C490.38 112.12 484.8 114.1 480.48 115.54L485.88 135.52L502.62 129.22V170.26C502.62 173.14 501.18 173.5 499.2 173.5C497.04 173.68 490.74 173.68 487.14 173.5L487.86 192.76C501 193.12 509.64 192.22 514.68 188.98C519.72 185.74 521.88 179.44 521.88 170.26V121.84C524.04 121.12 526.2 120.22 528.54 119.32L530.16 118.6C533.4 117.52 536.46 116.26 539.34 115.18L535.38 96.46L521.88 101.5V78.1H536.64V59.38C542.58 69.46 547.8 84.04 550.68 92.5L560.94 86.02V109.78L560.58 109.06C549.06 117.16 537 126.34 529.08 131.2L539.88 149.02C543.3 146.32 547.08 142.9 550.86 139.48L552.12 138.22C552.66 137.86 553.02 137.5 553.56 137.14L554.82 135.88C556.08 134.62 557.52 133.54 558.96 132.46C555.72 149.2 547.44 166.66 529.08 176.56L539.52 193.12C574.26 173.14 580.2 138.4 580.2 104.56ZM647.34 154.24L629.34 151.36C628.98 165.22 627.72 172.42 621.42 172.42H617.28C610.62 172.42 609.9 170.08 609.9 162.34V120.94C618.72 129.58 628.98 141.1 633.84 147.94L647.16 132.82C640.86 124.72 626.1 110.68 615.12 101.5L609.9 106.36V86.02L621.42 92.5C627.72 83.5 636.72 67.48 643.56 54.88L624.66 45.34C621.6 55.06 614.94 69.1 609.9 79V27.16H590.1V162.16C590.1 183.22 595.32 191.14 615.3 191.14H621.42C639.24 191.14 645.18 180.16 647.34 154.24ZM828.78 152.62L813.12 148.48C812.58 159.46 810.24 168.46 807.54 168.28C803.76 167.92 799.44 161.08 796.74 152.08C807 137.68 816.9 118.24 822.66 101.5L806.82 92.68C803.22 103.84 797.1 116.98 790.98 127.24C790.08 121.3 789 114.1 787.92 106.54L787.74 104.74L787.38 102.76C787.02 99.34 786.66 95.92 786.3 92.68L825.18 86.74L822.48 69.1L784.86 74.14C784.5 67.3 783.96 59.56 783.6 51.46V49.66C783.42 47.14 783.42 44.8 783.24 42.28V40.48V38.5C783.06 34.54 783.06 30.58 782.88 26.62H763.62C763.62 27.16 763.62 27.88 763.62 28.42V30.22C763.62 30.58 763.62 30.94 763.62 31.3L763.8 33.1C763.8 33.64 763.8 34.36 763.8 34.9V36.7C763.98 39.94 764.16 43 764.16 46.06L764.34 47.86C764.34 50.74 764.52 53.44 764.7 56.14V57.94C765.06 64.6 765.42 70.9 765.78 76.84L745.98 79.9L748.68 97.9L767.22 95.2C767.4 96.28 767.58 97.54 767.76 98.8L767.94 100.78C768.12 103.66 768.48 106.54 768.84 109.42L769.02 111.22L769.38 113.2C771 126.34 773.16 138.94 775.32 148.48C766.68 158.38 756.42 168.28 745.08 174.04V104.02H715.02V74.32H747.42V55.78H715.02V27.16H694.86V104.02H670.02V181.6H725.64V188.44H745.08V176.2C749.76 179.98 755.34 185.56 758.4 189.52C766.32 184.84 773.52 177.82 780.54 170.62L781.8 169.36C787.92 182.86 796.74 192.22 807.54 192.76C814.56 192.94 824.1 184.3 828.78 152.62ZM821.22 56.14C817.26 50.2 809.16 38.86 803.76 31.3L789.36 39.4C791.16 42.1 793.32 45.16 795.48 48.4L796.38 50.02C800.16 55.78 803.76 61.36 805.92 65.14L821.22 56.14ZM688.74 162.16V122.92H725.64V162.16H688.74Z" fill="url(#paint2_linear_620_921)"/>
<defs>
<linearGradient id="paint0_linear_620_921" x1="0" y1="0" x2="151.994" y2="29.0489" gradientUnits="userSpaceOnUse">
<stop stop-color="#0066FF"/>
<stop offset="1" stop-color="#00C2FF"/>
</linearGradient>
<linearGradient id="paint1_linear_620_921" x1="416.941" y1="66" x2="430.07" y2="82.2475" gradientUnits="userSpaceOnUse">
<stop stop-color="#0066FF"/>
<stop offset="1" stop-color="#00C2FF"/>
</linearGradient>
<linearGradient id="paint2_linear_620_921" x1="474" y1="0" x2="625.994" y2="29.0489" gradientUnits="userSpaceOnUse">
<stop stop-color="#0066FF"/>
<stop offset="1" stop-color="#00C2FF"/>
</linearGradient>
<clipPath id="clip0_620_921">
<rect width="64" height="64" fill="white" transform="translate(385 68)"/>
</clipPath>
</defs>
</svg>
