<svg width="25" height="22" viewBox="0 0 25 22" fill="none" xmlns="http://www.w3.org/2000/svg">
<path d="M24.6414 3.32758C23.8489 3.66866 23.0156 3.90618 22.1624 4.03425C22.5613 3.96586 23.1483 3.24779 23.3819 2.95715C23.7369 2.51874 24.0074 2.01825 24.1798 1.48112C24.1798 1.44123 24.2197 1.38424 24.1798 1.35575C24.1597 1.34477 24.1372 1.33902 24.1143 1.33902C24.0914 1.33902 24.0688 1.34477 24.0487 1.35575C23.1222 1.85749 22.1361 2.24044 21.1138 2.49553C21.0781 2.50642 21.0402 2.5074 21.0041 2.49836C20.9679 2.48932 20.9349 2.47062 20.9086 2.44424C20.829 2.34949 20.7434 2.26001 20.6521 2.17639C20.2352 1.8028 19.7621 1.49703 19.2502 1.27026C18.5592 0.986782 17.8129 0.864014 17.0675 0.911227C16.3443 0.956903 15.6382 1.15089 14.9931 1.48112C14.3579 1.82928 13.7996 2.30227 13.3518 2.87166C12.8808 3.45772 12.5407 4.13784 12.3545 4.86629C12.2009 5.5592 12.1835 6.27535 12.3032 6.9749C12.3032 7.09458 12.3032 7.11168 12.2006 7.09458C8.13727 6.49619 4.80339 5.05436 2.0793 1.95983C1.95962 1.82306 1.89693 1.82306 1.80005 1.95983C0.614669 3.7607 1.19026 6.61017 2.67199 8.01781C2.87145 8.20587 3.07661 8.38824 3.29317 8.55921C2.61381 8.51098 1.95104 8.32688 1.34413 8.01781C1.23015 7.94372 1.16747 7.98362 1.16177 8.12039C1.14561 8.31001 1.14561 8.50066 1.16177 8.69028C1.28068 9.59904 1.63881 10.4599 2.19954 11.1848C2.76028 11.9098 3.50349 12.4728 4.35317 12.8163C4.56031 12.905 4.77614 12.9719 4.99716 13.0158C4.36823 13.1396 3.7232 13.1589 3.08801 13.0728C2.95123 13.0443 2.89994 13.1184 2.95123 13.2494C3.78898 15.529 5.60694 16.2243 6.94049 16.6118C7.12286 16.6403 7.30523 16.6403 7.51039 16.6859C7.51039 16.6859 7.51039 16.6859 7.47619 16.7201C7.08297 17.4382 5.49296 17.9226 4.7635 18.1733C3.43204 18.6516 2.01246 18.8344 0.603271 18.709C0.381012 18.6748 0.329722 18.6805 0.272732 18.709C0.215743 18.7375 0.272732 18.8002 0.335421 18.8572C0.620368 19.0453 0.905315 19.2105 1.20166 19.3701C2.08388 19.8513 3.01657 20.2335 3.98274 20.5099C8.98641 21.889 14.617 20.8746 18.3726 17.1418C21.3246 14.2126 22.3618 10.172 22.3618 6.12576C22.3618 5.97189 22.5499 5.88071 22.6582 5.80092C23.405 5.219 24.0635 4.53176 24.6129 3.7607C24.7081 3.64576 24.7569 3.49942 24.7497 3.35038V3.35038C24.7497 3.26489 24.7497 3.28199 24.6414 3.32758Z" fill="white"/>
</svg>
