<svg width="24" height="25" viewBox="0 0 24 25" fill="none" xmlns="http://www.w3.org/2000/svg">
<g clip-path="url(#clip0_620_1024)">
<path d="M12 2.48584H8.70005C6.80005 2.48584 5.30005 3.98584 5.30005 5.78584C5.30005 7.58584 6.80005 9.08584 8.60005 9.08584H12V2.48584Z" stroke="white" stroke-miterlimit="10"/>
<path d="M12 9.18604H8.70002C6.90002 9.18604 5.40002 10.686 5.40002 12.486C5.40002 14.286 6.90002 15.786 8.70002 15.786H12V9.18604Z" stroke="white" stroke-miterlimit="10"/>
<path d="M12 15.7856H8.70002C6.90002 15.7856 5.40002 17.2856 5.40002 19.0856C5.40002 20.8856 6.90002 22.3856 8.70002 22.3856C10.5 22.3856 12 20.8856 12 19.0856V15.7856Z" stroke="white" stroke-miterlimit="10"/>
<path d="M12 2.48584H15.3C17.1 2.48584 18.6 3.98584 18.6 5.78584C18.6 7.58584 17.1 9.08584 15.3 9.08584H12V2.48584Z" stroke="white" stroke-miterlimit="10"/>
<path d="M15.3 9.18604C17.1 9.18604 18.6 10.686 18.6 12.486C18.6 14.286 17.1 15.786 15.3 15.786C13.5 15.786 12 14.286 12 12.486C12 10.686 13.5 9.18604 15.3 9.18604Z" stroke="white" stroke-miterlimit="10"/>
</g>
<defs>
<clipPath id="clip0_620_1024">
<rect width="24" height="24" fill="white" transform="translate(0 0.48584)"/>
</clipPath>
</defs>
</svg>
