<svg width="24" height="25" viewBox="0 0 24 25" fill="none" xmlns="http://www.w3.org/2000/svg">
<g clip-path="url(#clip0_620_1025)">
<path d="M6.9 21.0858C8.4 21.9858 10.2 22.4858 12 22.4858C17.5 22.4858 22 17.9858 22 12.4858C22 6.98584 17.5 2.48584 12 2.48584C6.5 2.48584 2 6.98584 2 12.4858C2 14.2858 2.5 15.9858 3.3 17.4858L2.44044 20.7918C2.24572 21.5408 2.93892 22.2176 3.68299 22.005L6.9 21.0858Z" stroke="white" stroke-miterlimit="10" stroke-linecap="round" stroke-linejoin="round"/>
<path d="M16.5 15.3343C16.5 15.4963 16.4639 15.6628 16.3873 15.8248C16.3107 15.9868 16.2116 16.1398 16.0809 16.2838C15.86 16.5268 15.6167 16.7023 15.3418 16.8148C15.0714 16.9273 14.7784 16.9858 14.4629 16.9858C14.0033 16.9858 13.512 16.8778 12.9937 16.6573C12.4755 16.4368 11.9572 16.1398 11.4434 15.7663C10.9251 15.3883 10.4339 14.9698 9.9652 14.5063C9.501 14.0383 9.08187 13.5478 8.70781 13.0348C8.33826 12.5218 8.04081 12.0088 7.82449 11.5003C7.60816 10.9873 7.5 10.4968 7.5 10.0288C7.5 9.72284 7.55408 9.43034 7.66224 9.16034C7.77041 8.88584 7.94166 8.63384 8.18052 8.40884C8.46895 8.12534 8.78443 7.98584 9.11793 7.98584C9.24412 7.98584 9.37031 8.01284 9.48297 8.06684C9.60015 8.12084 9.70381 8.20184 9.78493 8.31884L10.8305 9.79034C10.9116 9.90284 10.9702 10.0063 11.0108 10.1053C11.0513 10.1998 11.0739 10.2943 11.0739 10.3798C11.0739 10.4878 11.0423 10.5958 10.9792 10.6993C10.9206 10.8028 10.835 10.9108 10.7268 11.0188L10.3843 11.3743C10.3348 11.4238 10.3122 11.4823 10.3122 11.5543C10.3122 11.5903 10.3167 11.6218 10.3257 11.6578C10.3393 11.6938 10.3528 11.7208 10.3618 11.7478C10.4429 11.8963 10.5826 12.0898 10.7809 12.3238C10.9837 12.5578 11.2 12.7963 11.4344 13.0348C11.6778 13.2733 11.9121 13.4938 12.151 13.6963C12.3853 13.8943 12.5791 14.0293 12.7323 14.1103C12.7549 14.1193 12.7819 14.1328 12.8135 14.1463C12.8495 14.1598 12.8856 14.1643 12.9261 14.1643C13.0028 14.1643 13.0613 14.1373 13.1109 14.0878L13.4534 13.7503C13.5661 13.6378 13.6743 13.5523 13.7779 13.4983C13.8816 13.4353 13.9852 13.4038 14.0979 13.4038C14.1835 13.4038 14.2737 13.4218 14.3728 13.4623C14.472 13.5028 14.5756 13.5613 14.6883 13.6378L16.18 14.6953C16.2972 14.7763 16.3783 14.8708 16.4279 14.9833C16.473 15.0958 16.5 15.2083 16.5 15.3343Z" stroke="white" stroke-miterlimit="10"/>
</g>
<defs>
<clipPath id="clip0_620_1025">
<rect width="24" height="24" fill="white" transform="translate(0 0.48584)"/>
</clipPath>
</defs>
</svg>
