<svg width="200" height="40" viewBox="0 0 200 40" fill="none" xmlns="http://www.w3.org/2000/svg">
<path d="M17 28.5H7C4 28.5 2 27 2 23.5V16.5C2 13 4 11.5 7 11.5H17C20 11.5 22 13 22 16.5V23.5C22 27 20 28.5 17 28.5Z" stroke="#8C8C8C" stroke-width="1.8" stroke-linecap="round" stroke-linejoin="round"/>
<path d="M17 17L13.87 19.5C12.84 20.32 11.15 20.32 10.12 19.5L7 17" stroke="#8C8C8C" stroke-width="1.8" stroke-linecap="round" stroke-linejoin="round"/>
<path d="M44.288 17.412H42.848V23.924C42.272 24.868 41.52 25.556 40.48 25.556C39.456 25.556 38.992 25.06 38.992 23.764V17.412H37.536V23.924C37.536 25.7 38.496 26.708 40.08 26.708C41.408 26.708 42.272 26.132 42.944 25.028L43.056 26.5H44.288V17.412ZM51.7935 17.204C50.5935 17.204 49.6015 17.844 48.9455 18.788L48.8175 17.412H47.5855V26.5H49.0255V20.02C49.6655 19.012 50.4015 18.34 51.4735 18.34C52.4015 18.34 52.9455 18.788 52.9455 20.196V26.5H54.4015V19.988C54.4015 18.26 53.4735 17.204 51.7935 17.204ZM61.4255 17.204C60.2895 17.204 59.4415 17.908 58.9615 19.316L58.8175 17.412H57.5855V26.5H59.0255V21.236C59.4255 19.444 60.0975 18.628 61.2655 18.628C61.5855 18.628 61.7935 18.66 62.0495 18.724L62.3375 17.3C62.0495 17.236 61.7455 17.204 61.4255 17.204ZM70.7761 21.668C70.7761 18.916 69.5121 17.204 67.0801 17.204C64.7601 17.204 63.3521 19.188 63.3521 22.036C63.3521 24.932 64.8241 26.708 67.3201 26.708C68.5681 26.708 69.5761 26.276 70.4561 25.572L69.8161 24.708C69.0161 25.252 68.3441 25.508 67.4321 25.508C66.0561 25.508 65.0161 24.644 64.8881 22.452H70.7441C70.7601 22.26 70.7761 21.972 70.7761 21.668ZM69.3361 21.38H64.8881C65.0001 19.252 65.8481 18.356 67.1121 18.356C68.6161 18.356 69.3361 19.412 69.3361 21.252V21.38ZM79.0535 24.404V20.196C79.0535 18.308 78.0775 17.204 75.9175 17.204C74.9095 17.204 73.9335 17.412 72.8295 17.828L73.1975 18.9C74.1255 18.564 74.9575 18.388 75.6615 18.388C76.9735 18.388 77.6135 18.916 77.6135 20.26V20.98H76.1255C73.6295 20.98 72.1735 22.02 72.1735 23.956C72.1735 25.588 73.2455 26.708 75.0535 26.708C76.1895 26.708 77.1495 26.276 77.7735 25.3C78.0135 26.212 78.5895 26.58 79.4695 26.708L79.8215 25.684C79.3415 25.508 79.0535 25.252 79.0535 24.404ZM75.3735 25.604C74.2855 25.604 73.7255 24.996 73.7255 23.892C73.7255 22.596 74.6215 21.956 76.3175 21.956H77.6135V24.132C77.0695 25.108 76.3655 25.604 75.3735 25.604ZM84.0948 26.708C84.5428 26.708 84.9748 26.58 85.2948 26.42L84.9108 25.396C84.7508 25.46 84.5428 25.492 84.3188 25.492C83.8868 25.492 83.7108 25.236 83.7108 24.74V13.572L82.2548 13.748V24.772C82.2548 26.036 82.9748 26.708 84.0948 26.708ZM94.8693 14.404C90.1973 14.404 87.0453 17.86 87.0453 22.356C87.0453 27.14 90.2613 30.148 94.8533 30.148C96.4053 30.148 97.4453 29.876 98.5653 29.492L98.1653 28.372C97.2373 28.692 96.1653 28.932 94.8693 28.932C90.8373 28.932 88.5173 26.244 88.5173 22.356C88.5173 18.5 90.9493 15.62 94.8693 15.62C98.6613 15.62 100.677 17.892 100.677 21.236C100.677 24.052 99.9413 25.204 98.7733 25.204C98.0053 25.204 97.5253 24.692 97.5253 23.188V18.708C96.5973 18.228 95.7812 18.036 94.8693 18.036C92.7253 18.036 91.1413 19.524 91.1413 22.516C91.1413 24.804 92.2933 26.292 94.1173 26.292C95.4613 26.292 96.1973 25.428 96.6133 24.532C96.7893 25.364 97.4133 26.324 98.7893 26.324C100.997 26.324 102.149 24.148 102.149 21.188C102.149 17.604 99.6373 14.404 94.8693 14.404ZM94.2773 25.22C93.1733 25.22 92.5493 24.292 92.5493 22.516C92.5493 20.26 93.3653 19.092 94.9013 19.092C95.4613 19.092 95.8453 19.188 96.2133 19.364V23.668C95.9893 24.244 95.4773 25.22 94.2773 25.22ZM108.43 17.204C105.902 17.204 104.43 19.124 104.43 21.972C104.43 24.852 105.87 26.708 108.414 26.708C110.958 26.708 112.43 24.788 112.43 21.94C112.43 19.028 110.99 17.204 108.43 17.204ZM108.43 18.372C110.014 18.372 110.878 19.54 110.878 21.94C110.878 24.372 109.982 25.54 108.414 25.54C106.846 25.54 105.982 24.372 105.982 21.972C105.982 19.54 106.878 18.372 108.43 18.372ZM121.726 17.412H120.286V23.924C119.71 24.868 118.958 25.556 117.918 25.556C116.894 25.556 116.43 25.06 116.43 23.764V17.412H114.974V23.924C114.974 25.7 115.934 26.708 117.518 26.708C118.846 26.708 119.71 26.132 120.382 25.028L120.494 26.5H121.726V17.412ZM128.991 25.124C128.543 25.38 128.159 25.492 127.727 25.492C126.911 25.492 126.591 25.044 126.591 24.1V18.532H128.623L128.783 17.412H126.591V15.172L125.135 15.316V17.412H123.567V18.532H125.135V24.164C125.135 25.828 126.031 26.708 127.535 26.708C128.303 26.708 128.959 26.5 129.551 26.1L128.991 25.124ZM132.923 26.708C133.371 26.708 133.803 26.58 134.123 26.42L133.739 25.396C133.579 25.46 133.371 25.492 133.147 25.492C132.715 25.492 132.539 25.236 132.539 24.74V13.572L131.083 13.748V24.772C131.083 26.036 131.803 26.708 132.923 26.708ZM139.633 17.204C137.105 17.204 135.633 19.124 135.633 21.972C135.633 24.852 137.073 26.708 139.617 26.708C142.161 26.708 143.633 24.788 143.633 21.94C143.633 19.028 142.193 17.204 139.633 17.204ZM139.633 18.372C141.217 18.372 142.081 19.54 142.081 21.94C142.081 24.372 141.185 25.54 139.617 25.54C138.049 25.54 137.185 24.372 137.185 21.972C137.185 19.54 138.081 18.372 139.633 18.372ZM149.665 17.204C147.137 17.204 145.665 19.124 145.665 21.972C145.665 24.852 147.105 26.708 149.649 26.708C152.193 26.708 153.665 24.788 153.665 21.94C153.665 19.028 152.225 17.204 149.665 17.204ZM149.665 18.372C151.249 18.372 152.113 19.54 152.113 21.94C152.113 24.372 151.217 25.54 149.649 25.54C148.081 25.54 147.217 24.372 147.217 21.972C147.217 19.54 148.113 18.372 149.665 18.372ZM157.76 13.572L156.32 13.748V26.5H157.76V13.572ZM162.96 17.412H161.328L157.872 21.54L161.6 26.5H163.344L159.504 21.444L162.96 17.412ZM165.578 24.484C164.954 24.484 164.474 24.98 164.474 25.588C164.474 26.212 164.954 26.708 165.578 26.708C166.234 26.708 166.698 26.212 166.698 25.588C166.698 24.98 166.234 24.484 165.578 24.484ZM172.366 17.204C169.934 17.204 168.43 19.124 168.43 22.02C168.43 24.964 169.95 26.708 172.366 26.708C173.406 26.708 174.318 26.356 175.102 25.7L174.414 24.756C173.742 25.22 173.198 25.46 172.414 25.46C170.926 25.46 169.982 24.42 169.982 22.004C169.982 19.572 170.926 18.42 172.414 18.42C173.198 18.42 173.79 18.644 174.382 19.092L175.102 18.164C174.27 17.476 173.422 17.204 172.366 17.204ZM180.258 17.204C177.73 17.204 176.258 19.124 176.258 21.972C176.258 24.852 177.698 26.708 180.242 26.708C182.786 26.708 184.258 24.788 184.258 21.94C184.258 19.028 182.818 17.204 180.258 17.204ZM180.258 18.372C181.842 18.372 182.706 19.54 182.706 21.94C182.706 24.372 181.81 25.54 180.242 25.54C178.674 25.54 177.81 24.372 177.81 21.972C177.81 19.54 178.706 18.372 180.258 18.372ZM195.97 17.204C194.754 17.204 193.89 17.876 193.234 18.884C192.898 17.828 192.082 17.204 190.946 17.204C189.762 17.204 188.914 17.844 188.274 18.788L188.146 17.412H186.914V26.5H188.354V20.02C188.978 19.012 189.586 18.34 190.594 18.34C191.346 18.34 191.938 18.788 191.938 20.196V26.5H193.394V20.02C194.034 19.012 194.61 18.34 195.618 18.34C196.37 18.34 196.962 18.788 196.962 20.196V26.5H198.418V19.988C198.418 18.276 197.442 17.204 195.97 17.204Z" fill="white"/>
</svg>
