<svg width="24" height="25" viewBox="0 0 24 25" fill="none" xmlns="http://www.w3.org/2000/svg">
<g clip-path="url(#clip0_620_1023)">
<path d="M18.5 5.27588C15.9 9.82588 10.89 12.4359 5.67 11.9659L2.5 11.6759" stroke="white" stroke-miterlimit="10" stroke-linecap="round" stroke-linejoin="round"/>
<path d="M5.5 19.8556C8.1 15.3056 13.11 12.6956 18.33 13.1656L21.5 13.4556" stroke="white" stroke-miterlimit="10" stroke-linecap="round" stroke-linejoin="round"/>
<path d="M12 22.4858C17.5228 22.4858 22 18.0087 22 12.4858C22 6.96299 17.5228 2.48584 12 2.48584C6.47715 2.48584 2 6.96299 2 12.4858C2 18.0087 6.47715 22.4858 12 22.4858Z" stroke="white" stroke-miterlimit="10" stroke-linecap="round" stroke-linejoin="round"/>
<path d="M7.63 3.48584L10.81 7.43584C12.94 10.0758 14.45 13.1458 15.25 16.4358L16.46 21.4258" stroke="white" stroke-miterlimit="10" stroke-linecap="round" stroke-linejoin="round"/>
</g>
<defs>
<clipPath id="clip0_620_1023">
<rect width="24" height="24" fill="white" transform="translate(0 0.48584)"/>
</clipPath>
</defs>
</svg>
