<svg width="133" height="40" viewBox="0 0 133 40" fill="none" xmlns="http://www.w3.org/2000/svg">
<path d="M20.97 27.33C20.97 27.69 20.89 28.06 20.72 28.42C20.55 28.78 20.33 29.12 20.04 29.44C19.55 29.98 19.01 30.37 18.4 30.62C17.8 30.87 17.15 31 16.45 31C15.43 31 14.34 30.76 13.19 30.27C12.04 29.78 10.89 29.12 9.75 28.29C8.6 27.45 7.51 26.52 6.47 25.49C5.44 24.45 4.51 23.36 3.68 22.22C2.86 21.08 2.2 19.94 1.72 18.81C1.24 17.67 1 16.58 1 15.54C1 14.86 1.12 14.21 1.36 13.61C1.6 13 1.98 12.44 2.51 11.94C3.15 11.31 3.85 11 4.59 11C4.87 11 5.15 11.06 5.4 11.18C5.66 11.3 5.89 11.48 6.07 11.74L8.39 15.01C8.57 15.26 8.7 15.49 8.79 15.71C8.88 15.92 8.93 16.13 8.93 16.32C8.93 16.56 8.86 16.8 8.72 17.03C8.59 17.26 8.4 17.5 8.16 17.74L7.4 18.53C7.29 18.64 7.24 18.77 7.24 18.93C7.24 19.01 7.25 19.08 7.27 19.16C7.3 19.24 7.33 19.3 7.35 19.36C7.53 19.69 7.84 20.12 8.28 20.64C8.73 21.16 9.21 21.69 9.73 22.22C10.27 22.75 10.79 23.24 11.32 23.69C11.84 24.13 12.27 24.43 12.61 24.61C12.66 24.63 12.72 24.66 12.79 24.69C12.87 24.72 12.95 24.73 13.04 24.73C13.21 24.73 13.34 24.67 13.45 24.56L14.21 23.81C14.46 23.56 14.7 23.37 14.93 23.25C15.16 23.11 15.39 23.04 15.64 23.04C15.83 23.04 16.03 23.08 16.25 23.17C16.47 23.26 16.7 23.39 16.95 23.56L20.26 25.91C20.52 26.09 20.7 26.3 20.81 26.55C20.91 26.8 20.97 27.05 20.97 27.33Z" stroke="#8C8C8C" stroke-width="1.8" stroke-miterlimit="10"/>
<path d="M17.5 18C17.5 17.4 17.03 16.48 16.33 15.73C15.69 15.04 14.84 14.5 14 14.5" stroke="#8C8C8C" stroke-width="1.8" stroke-linecap="round" stroke-linejoin="round"/>
<path d="M21 18C21 14.13 17.87 11 14 11" stroke="#8C8C8C" stroke-width="1.8" stroke-linecap="round" stroke-linejoin="round"/>
<path d="M39.872 14.788C38.624 14.788 37.568 15.236 36.608 16.132L37.36 16.996C38.16 16.276 38.864 15.956 39.792 15.956C40.992 15.956 41.776 16.644 41.776 17.796C41.776 19.188 40.784 19.892 39.632 19.892H39.04L38.864 21.028H39.712C41.152 21.028 42.064 21.54 42.064 23.188C42.064 24.58 41.168 25.508 39.664 25.508C38.72 25.508 37.936 25.172 37.152 24.356L36.272 25.172C37.152 26.212 38.336 26.708 39.712 26.708C42.08 26.708 43.584 25.204 43.584 23.188C43.584 21.412 42.432 20.484 40.976 20.372C42.272 20.068 43.248 19.188 43.248 17.7C43.248 16.132 42.032 14.788 39.872 14.788ZM49.6279 14.964H48.3479L44.8119 17.156L45.4519 18.196L48.1879 16.516V26.5H49.6279V14.964ZM56.3625 14.788C53.8185 14.788 52.5705 16.868 52.5705 20.724C52.5705 24.58 53.8185 26.708 56.3625 26.708C58.9065 26.708 60.1705 24.58 60.1705 20.74C60.1705 16.9 58.9065 14.788 56.3625 14.788ZM56.3625 15.94C57.8505 15.94 58.6665 17.3 58.6665 20.74C58.6665 24.164 57.8505 25.556 56.3625 25.556C54.8585 25.556 54.0745 24.164 54.0745 20.724C54.0745 17.3 54.8585 15.94 56.3625 15.94ZM62.2283 21.716H67.0443V20.468H62.2283V21.716ZM76.5295 22.436H75.0255V19.284H73.7615L73.6175 22.436H70.1775L73.3455 15.284L72.1295 14.788L68.6415 22.564V23.62H73.6015V26.5H75.0255V23.62H76.5295V22.436ZM80.6689 14.788C79.4209 14.788 78.3649 15.236 77.4049 16.132L78.1569 16.996C78.9569 16.276 79.6609 15.956 80.5889 15.956C81.7889 15.956 82.5729 16.644 82.5729 17.796C82.5729 19.188 81.5809 19.892 80.4289 19.892H79.8369L79.6609 21.028H80.5089C81.9489 21.028 82.8609 21.54 82.8609 23.188C82.8609 24.58 81.9649 25.508 80.4609 25.508C79.5169 25.508 78.7329 25.172 77.9489 24.356L77.0689 25.172C77.9489 26.212 79.1329 26.708 80.5089 26.708C82.8769 26.708 84.3809 25.204 84.3809 23.188C84.3809 21.412 83.2289 20.484 81.7729 20.372C83.0689 20.068 84.0449 19.188 84.0449 17.7C84.0449 16.132 82.8289 14.788 80.6689 14.788ZM92.4009 14.964H85.7449V16.148H90.9289L86.6889 26.228L88.0329 26.66L92.4009 16.052V14.964ZM93.3064 21.716H98.1224V20.468H93.3064V21.716ZM101.998 14.788C100.574 14.788 99.4701 15.348 98.5421 16.5L99.5021 17.252C100.254 16.388 100.926 15.972 101.934 15.972C103.086 15.972 103.886 16.724 103.886 17.988C103.886 19.892 102.878 21.028 98.7661 25.348V26.5H105.502L105.678 25.268H100.43C104.046 21.604 105.406 20.1 105.406 17.908C105.406 16.132 104.094 14.788 101.998 14.788ZM113.51 14.964H106.854V16.148H112.038L107.798 26.228L109.142 26.66L113.51 16.052V14.964ZM119.03 18.932C117.91 18.932 116.982 19.412 116.214 20.484C116.294 17.764 117.318 15.94 119.046 15.94C119.718 15.94 120.294 16.116 120.838 16.436L121.398 15.476C120.742 15.044 120.006 14.788 119.078 14.788C116.39 14.788 114.774 17.284 114.774 21.124C114.774 24.372 115.798 26.708 118.582 26.708C120.614 26.708 122.198 25.124 122.198 22.596C122.198 20.116 120.726 18.932 119.03 18.932ZM118.582 25.556C116.982 25.556 116.31 24.276 116.23 21.732C116.838 20.74 117.718 20.084 118.79 20.084C119.91 20.084 120.726 20.756 120.726 22.628C120.726 24.372 120.006 25.556 118.582 25.556ZM128.202 18.932C127.082 18.932 126.154 19.412 125.386 20.484C125.466 17.764 126.49 15.94 128.218 15.94C128.89 15.94 129.466 16.116 130.01 16.436L130.57 15.476C129.914 15.044 129.178 14.788 128.25 14.788C125.562 14.788 123.946 17.284 123.946 21.124C123.946 24.372 124.97 26.708 127.754 26.708C129.786 26.708 131.37 25.124 131.37 22.596C131.37 20.116 129.898 18.932 128.202 18.932ZM127.754 25.556C126.154 25.556 125.482 24.276 125.402 21.732C126.01 20.74 126.89 20.084 127.962 20.084C129.082 20.084 129.898 20.756 129.898 22.628C129.898 24.372 129.178 25.556 127.754 25.556Z" fill="white"/>
</svg>
