<svg width="26" height="20" viewBox="0 0 26 20" fill="none" xmlns="http://www.w3.org/2000/svg">
<path d="M21.2515 2.02148C24.0798 6.20567 25.4766 10.9253 24.9545 16.3587C24.9523 16.3817 24.9404 16.4028 24.9216 16.4167C22.7797 17.9991 20.7046 18.9595 18.6585 19.5964C18.6426 19.6013 18.6256 19.601 18.6098 19.5956C18.594 19.5903 18.5803 19.5801 18.5706 19.5665C18.0979 18.9047 17.6684 18.207 17.2921 17.4744C17.2705 17.4312 17.2902 17.3793 17.3347 17.3622C18.0168 17.1037 18.6654 16.7937 19.2893 16.4268C19.3385 16.3978 19.3416 16.3269 19.2962 16.2929C19.1638 16.194 19.0326 16.09 18.9071 15.9861C18.8836 15.9669 18.852 15.9631 18.8254 15.976C14.7749 17.858 10.3379 17.858 6.2395 15.976C6.21289 15.9641 6.18127 15.9681 6.15842 15.987C6.0332 16.091 5.90172 16.194 5.77056 16.2929C5.72517 16.3269 5.72892 16.3978 5.77838 16.4268C6.40228 16.7868 7.0509 17.1037 7.73208 17.3635C7.77622 17.3805 7.7972 17.4312 7.77528 17.4744C7.40715 18.208 6.97765 18.9056 6.49619 19.5674C6.47522 19.5942 6.44078 19.6065 6.40823 19.5964C4.37188 18.9595 2.29672 17.9991 0.154879 16.4167C0.137036 16.4028 0.124201 16.3808 0.122323 16.3578C-0.314059 11.658 0.575296 6.89926 3.82186 2.02054C3.82969 2.00763 3.84159 1.99755 3.85536 1.99156C5.45282 1.25388 7.16422 0.71117 8.95295 0.40123C8.98551 0.39619 9.01806 0.411309 9.03497 0.440288C9.25598 0.834012 9.5086 1.33892 9.67952 1.75155C11.565 1.46177 13.4799 1.46177 15.4048 1.75155C15.5757 1.34774 15.8195 0.834012 16.0396 0.440288C16.0475 0.425912 16.0596 0.414395 16.0743 0.407381C16.0891 0.400367 16.1056 0.398214 16.1216 0.40123C17.9113 0.712115 19.6227 1.25482 21.2189 1.99156C21.233 1.99755 21.2446 2.00763 21.2515 2.02148V2.02148ZM10.6381 10.9575C10.6578 9.56808 9.65104 8.4184 8.38728 8.4184C7.13386 8.4184 6.13682 9.558 6.13682 10.9575C6.13682 12.3566 7.15358 13.4962 8.38728 13.4962C9.64102 13.4962 10.6381 12.3566 10.6381 10.9575V10.9575ZM18.9594 10.9575C18.9791 9.56808 17.9723 8.4184 16.7089 8.4184C15.4552 8.4184 14.4581 9.558 14.4581 10.9575C14.4581 12.3566 15.4749 13.4962 16.7089 13.4962C17.9723 13.4962 18.9594 12.3566 18.9594 10.9575V10.9575Z" fill="white"/>
</svg>
