<svg width="28" height="25" viewBox="0 0 28 25" fill="none" xmlns="http://www.w3.org/2000/svg">
<path d="M19.397 6.86116C19.9154 6.86116 20.4217 6.90424 20.9213 6.96583C20.0182 2.99987 15.8526 0 10.8437 0C5.1742 0 0.579224 3.84041 0.579224 8.57647C0.579224 11.307 2.11554 13.7296 4.49848 15.2971L3.14525 18.0107L6.83167 16.4275C7.62217 16.709 8.44361 16.9408 9.32099 17.0487C9.20109 16.5253 9.13296 15.9888 9.13296 15.438C9.13296 10.7087 13.7363 6.86116 19.397 6.86116ZM14.2651 3.85915C14.9735 3.85915 15.548 4.43545 15.548 5.1458C15.548 5.85639 14.9736 6.43226 14.2651 6.43226C13.5563 6.43226 12.9821 5.85639 12.9821 5.1458C12.9821 4.43539 13.5563 3.85915 14.2651 3.85915ZM7.42212 6.43226C6.71361 6.43226 6.13911 5.85639 6.13911 5.1458C6.13911 4.43545 6.71367 3.85915 7.42212 3.85915C8.13057 3.85915 8.70519 4.43545 8.70519 5.1458C8.70513 5.85639 8.13051 6.43226 7.42212 6.43226Z" fill="white"/>
<path d="M27.9507 15.4379C27.9507 11.6485 24.1201 8.57647 19.397 8.57647C14.6737 8.57647 10.8437 11.6485 10.8437 15.4379C10.8437 19.227 14.6737 22.2992 19.397 22.2992C20.1738 22.2992 20.9126 22.1894 21.6295 22.0335L26.24 24.0144L24.6455 20.819C26.6438 19.5631 27.9507 17.6319 27.9507 15.4379ZM16.831 15.009C16.1226 15.009 15.548 14.433 15.548 13.7223C15.548 13.0119 16.1225 12.436 16.831 12.436C17.5397 12.436 18.114 13.0122 18.114 13.7223C18.114 14.433 17.5396 15.009 16.831 15.009ZM21.9631 15.009C21.2543 15.009 20.6801 14.433 20.6801 13.7223C20.6801 13.0119 21.2542 12.436 21.9631 12.436C22.6718 12.436 23.2462 13.0122 23.2462 13.7223C23.2462 14.433 22.6718 15.009 21.9631 15.009Z" fill="white"/>
</svg>
